<svg width="132" height="34" viewBox="0 0 132 34" fill="none" xmlns="http://www.w3.org/2000/svg">
<g clip-path="url(#clip0_3280_249372)">
<path d="M44.4531 19.8969H47.353C47.353 20.8783 47.8437 21.5176 49.699 21.5176C51.3829 21.5176 51.9803 21.0268 51.9803 20.2588C51.9803 19.8756 51.7882 19.5769 51.2343 19.4496C50.6796 19.3216 49.827 19.2363 48.7817 19.1502C47.2684 19.0222 46.0951 18.7883 45.4558 18.3403C44.8584 17.9136 44.4531 17.1463 44.4531 16.2724C44.4531 13.9911 46.7983 12.7324 49.7196 12.7324C53.1742 12.7324 54.7522 14.0551 54.7522 16.507H51.8949C51.8735 15.3977 51.3623 14.8224 49.763 14.8224C48.313 14.8224 47.673 15.3123 47.673 16.0377C47.673 16.4849 47.8436 16.8263 48.441 16.9756C48.9736 17.1036 49.9116 17.189 51.0423 17.2957C52.3429 17.4237 53.2595 17.5517 54.0481 17.9997C54.7308 18.3829 55.2215 19.1723 55.2215 20.0889C55.2215 22.3061 53.3235 23.6075 49.7196 23.6075C46.0097 23.6075 44.4531 22.0296 44.4531 19.8969H44.4531Z" fill="black"/>
<path d="M57.5449 19.812V15.4202H55.9883V12.9035H57.2463C57.7369 12.9035 57.9076 12.6269 57.9716 11.9869L58.1209 10.5156H60.7862V12.9035H64.1547V15.4202H60.7862V19.6413C60.7862 20.7293 61.2974 21.0699 62.5767 21.0699C63.0247 21.0699 63.6861 21.0059 64.048 20.9206V23.3725C63.7707 23.4365 62.8754 23.6079 62.0015 23.6079C58.7175 23.6079 57.5449 22.158 57.5449 19.812V19.812Z" fill="black"/>
<path fill-rule="evenodd" clip-rule="evenodd" d="M65.0938 20.4089C65.0938 18.6816 66.3304 17.4237 69.1236 17.4237H72.5561V16.7204C72.5561 15.4404 71.8316 14.9283 70.3389 14.9283C69.1236 14.9283 68.4196 15.4403 68.4196 16.2929C68.4196 16.357 68.4196 16.5284 68.441 16.741H65.4564C65.4343 16.571 65.413 16.3364 65.413 16.123C65.413 13.9911 67.2897 12.7324 70.4883 12.7324C73.8354 12.7324 75.7974 14.2251 75.7974 17.0396V23.4361H72.5561C72.6202 22.9035 72.7054 21.9435 72.7054 21.3042H72.6842C72.3641 22.7968 71.1702 23.6075 69.2516 23.6075C66.799 23.6075 65.0938 22.5408 65.0938 20.4089V20.4089ZM72.5561 19.3856V19.1723H69.4223C68.5476 19.1723 68.015 19.5769 68.015 20.1742C68.015 20.9842 68.7183 21.4109 69.8909 21.4109C71.5756 21.4109 72.5561 20.6649 72.5561 19.3856V19.3856Z" fill="black"/>
<path d="M77.3086 12.9031H80.5491L80.4211 15.9097H80.4638C80.9118 13.9051 82.0418 12.7324 84.1104 12.7324C86.2637 12.7324 87.5224 14.1184 87.5224 16.8476C87.5224 17.445 87.4584 18.3829 87.4157 18.9376H84.4731C84.515 18.4256 84.5371 17.893 84.5371 17.573C84.5371 16.0377 83.9184 15.4198 82.8951 15.4198C81.5092 15.4198 80.5491 16.549 80.5491 18.8942V23.4361H77.3086L77.3086 12.9031Z" fill="black"/>
<path fill-rule="evenodd" clip-rule="evenodd" d="M100.081 24.3109C100.081 26.7201 97.9274 28.0002 94.2815 28.0002C90.5716 28.0002 88.375 26.9761 88.375 25.2275C88.375 24.1189 89.1004 23.4362 90.273 23.3082V23.2876C89.633 22.8823 89.2916 22.3063 89.2916 21.5603C89.2916 20.5584 89.8036 19.9397 90.593 19.577V19.5557C89.4836 18.9164 88.8657 17.8718 88.8657 16.5072C88.8657 14.1399 90.6997 12.7326 93.7908 12.7326C95.0274 12.7326 96.0515 12.9459 96.8401 13.3726L96.8615 13.3299C96.4348 12.9459 96.2435 12.5192 96.2435 12.1352C96.2435 11.262 97.1174 10.75 98.4607 10.75C99.0367 10.75 99.3354 10.7927 99.6334 10.8567V12.9032C99.4413 12.8606 99.2279 12.8392 98.9934 12.8392C98.3114 12.8392 97.9913 13.1379 97.9913 13.6278C97.9913 13.8838 98.0767 14.2038 98.2261 14.5879C98.5674 15.1204 98.7373 15.7605 98.7373 16.5072C98.7373 18.8738 96.9041 20.2589 93.7908 20.2589C93.1516 20.2589 92.5763 20.1957 92.0422 20.089C91.9576 20.217 91.851 20.4731 91.851 20.771C91.851 21.2403 92.2342 21.5177 92.8743 21.5177H96.2861C98.6741 21.5177 100.081 22.5623 100.081 24.3109L100.081 24.3109ZM96.8389 24.7588C96.8389 24.1828 96.413 23.8628 95.4743 23.8628H92.9797C92.105 23.8628 91.5938 24.2255 91.5938 24.8228C91.5938 25.6114 92.5751 26.0374 94.2376 26.0374C95.8796 26.0374 96.8389 25.5901 96.8389 24.7588ZM91.9142 16.5072C91.9142 17.5731 92.6183 18.2124 93.7908 18.2124C94.9855 18.2124 95.6888 17.5731 95.6888 16.5072C95.6888 15.4199 94.9855 14.7799 93.7908 14.7799C92.6183 14.7799 91.9142 15.4199 91.9142 16.5072Z" fill="black"/>
<path fill-rule="evenodd" clip-rule="evenodd" d="M100.805 20.4089C100.805 18.6816 102.041 17.4237 104.835 17.4237H108.267V16.7204C108.267 15.4404 107.542 14.9283 106.05 14.9283C104.835 14.9283 104.131 15.4403 104.131 16.2929C104.131 16.357 104.131 16.5284 104.152 16.741H101.167C101.146 16.571 101.124 16.3364 101.124 16.123C101.124 13.9911 103.001 12.7324 106.199 12.7324C109.546 12.7324 111.508 14.2251 111.508 17.0396V23.4361H108.267C108.331 22.9035 108.417 21.9435 108.417 21.3042H108.395C108.075 22.7968 106.881 23.6075 104.963 23.6075C102.511 23.6075 100.805 22.5408 100.805 20.4089V20.4089ZM108.267 19.3856V19.1723H105.133C104.259 19.1723 103.726 19.5769 103.726 20.1742C103.726 20.9842 104.429 21.4109 105.602 21.4109C107.286 21.4109 108.267 20.6649 108.267 19.3856V19.3856Z" fill="black"/>
<path d="M113.916 19.812V15.4202H112.359V12.9035H113.618C114.108 12.9035 114.279 12.6269 114.343 11.9869L114.492 10.5156H117.157V12.9035H120.527V15.4202H117.157V19.6413C117.157 20.7293 117.669 21.0699 118.949 21.0699C119.397 21.0699 120.057 21.0059 120.419 20.9206V23.3725C120.142 23.4365 119.246 23.6079 118.373 23.6079C115.089 23.6079 113.916 22.158 113.916 19.812V19.812Z" fill="black"/>
<path fill-rule="evenodd" clip-rule="evenodd" d="M132.001 18.7883H124.517C124.666 20.5148 125.54 21.2615 126.99 21.2615C128.248 21.2615 129.058 20.8142 129.144 19.7902H132.001C131.937 22.1995 129.932 23.6075 126.926 23.6075C123.429 23.6075 121.254 21.6234 121.254 18.2763C121.254 14.8003 123.429 12.7324 126.99 12.7324C129.932 12.7324 132.001 14.4171 132.001 17.8717V18.7883ZM129.144 16.8903C129.144 15.6963 128.333 15.0784 126.99 15.0784C125.625 15.0784 124.858 15.675 124.602 17.061H129.144V16.8903Z" fill="black"/>
<g clip-path="url(#clip1_3280_249372)">
<g clip-path="url(#clip2_3280_249372)">
<path d="M19.968 1.66351L20.8548 3.74064C22.5954 7.81901 25.8439 11.0675 29.9222 12.8081L31.9994 13.6949C32.543 13.9267 32.9843 14.2591 33.325 14.6551C32.2906 7.23828 26.4246 1.37151 19.0078 0.337891C19.403 0.677731 19.7362 1.11987 19.968 1.66351H19.968Z" fill="#999999"/>
<path d="M1.32562 13.6949L3.40277 12.8081C7.48114 11.0675 10.7296 7.81901 12.471 3.74064L13.357 1.66351C13.5896 1.11987 13.9221 0.677731 14.3172 0.337891C6.90039 1.37151 1.03442 7.23828 0 14.6551C0.34067 14.2591 0.78201 13.9267 1.32562 13.6949Z" fill="#999999"/>
<path d="M31.9994 20.304L29.9222 21.1908C25.8439 22.9313 22.5954 26.1806 20.8548 30.259L19.968 32.3353C19.7362 32.8789 19.403 33.3211 19.0078 33.6618C26.4246 32.6274 32.2906 26.7606 33.325 19.3438C32.9843 19.7397 32.543 20.0721 31.9994 20.304H31.9994Z" fill="#999999"/>
<path d="M13.357 32.3353L12.471 30.259C10.7296 26.1806 7.48114 22.9313 3.40277 21.1908L1.32562 20.304C0.78201 20.0721 0.34067 19.7397 0 19.3438C1.03442 26.7606 6.90039 32.6274 14.3172 33.6618C13.9221 33.3211 13.5896 32.8789 13.357 32.3353Z" fill="#999999"/>
</g>
<path d="M9.10261 15.3712L10.1263 14.934C12.1358 14.076 13.737 12.4757 14.5949 10.4662L15.0313 9.44246C15.6434 8.00876 17.6759 8.00876 18.288 9.44246L18.7244 10.4662C19.5823 12.4757 21.1835 14.076 23.193 14.934L24.2167 15.3712C25.6504 15.9832 25.6504 18.015 24.2167 18.6271L23.193 19.0643C21.1835 19.9222 19.5823 21.5225 18.7244 23.5329L18.288 24.5557C17.6759 25.9894 15.6434 25.9894 15.0313 24.5557L14.5949 23.5329C13.737 21.5225 12.1358 19.9222 10.1263 19.0643L9.10261 18.6271C7.66892 18.015 7.66892 15.9832 9.10261 15.3712Z" fill="black"/>
</g>
</g>
<defs>
<clipPath id="clip0_3280_249372">
<rect width="132" height="34" fill="white"/>
</clipPath>
<clipPath id="clip1_3280_249372">
<rect width="33.3232" height="33.323" fill="white" transform="translate(0 0.337891)"/>
</clipPath>
<clipPath id="clip2_3280_249372">
<rect width="33.3232" height="33.323" fill="white" transform="translate(0 0.337891)"/>
</clipPath>
</defs>
</svg>
